<svg xmlns="http://www.w3.org/2000/svg" viewBox="0 0 1200 630" width="1200" height="630" role="img" aria-labelledby="t d">
  <title id="t">Portada social de Creative Programming Partners</title>
  <desc id="d">Marca CPP y el lema Menos fricción. Más negocio.</desc>
  <rect width="1200" height="630" fill="#050F17"/>
  <path fill="#0A1B25" d="M720.00,0.00 1200.00,0.00 1200.00,630.00 520.00,630.00Z"/>
  <path fill="#5B8CFF" opacity="0.16" d="M930.00,85.00 1140.00,207.50 1043.75,264.38 930.00,198.75 833.75,255.62 737.50,198.75Z"/>
  <path fill="#F4F7F5" opacity="0.07" d="M737.50,198.75 833.75,255.62 833.75,413.12 930.00,470.00 930.00,579.38 737.50,465.62Z"/>
  <path fill="#9AAFB9" opacity="0.07" d="M930.00,470.00 1026.25,413.12 1026.25,312.50 1122.50,255.62 1122.50,470.00 930.00,579.38Z"/>
  <path fill="#5B8CFF" d="M132.00,78.50 171.00,101.25 153.12,111.81 132.00,99.62 114.12,110.19 96.25,99.62Z"/>
  <path fill="#F4F7F5" d="M96.25,99.62 114.12,110.19 114.12,139.44 132.00,150.00 132.00,170.31 96.25,149.19Z"/>
  <path fill="#9AAFB9" d="M132.00,150.00 149.88,139.44 149.88,120.75 167.75,110.19 167.75,150.00 132.00,170.31Z"/>
  <path fill="#F4F7F5" d="M218.42 138.21Q213.85 138.21 209.93 136.55Q206.01 134.89 203.09 131.91Q200.18 128.94 198.55 124.94Q196.92 120.93 196.92 116.18Q196.92 111.44 198.52 107.40Q200.12 103.37 203.04 100.43Q205.95 97.48 209.87 95.85Q213.79 94.22 218.42 94.22Q223.06 94.22 226.75 95.76Q230.44 97.31 233.01 99.88Q235.58 102.46 236.67 105.60L228.83 109.38Q227.75 106.29 225.03 104.26Q222.31 102.23 218.42 102.23Q214.65 102.23 211.79 104.00Q208.93 105.77 207.36 108.89Q205.78 112.01 205.78 116.18Q205.78 120.36 207.36 123.51Q208.93 126.65 211.79 128.43Q214.65 130.20 218.42 130.20Q222.31 130.20 225.03 128.17Q227.75 126.14 228.83 123.05L236.67 126.82Q235.58 129.97 233.01 132.54Q230.44 135.12 226.75 136.66Q223.06 138.21 218.42 138.21ZM239.87 137.52V94.91H256.23Q260.64 94.91 264.04 96.45Q267.44 97.99 269.39 101.03Q271.33 104.06 271.33 108.52Q271.33 112.87 269.36 115.90Q267.39 118.93 263.98 120.50Q260.58 122.08 256.23 122.08H248.74V137.52ZM248.74 114.35H256.29Q258.18 114.35 259.55 113.61Q260.92 112.87 261.70 111.55Q262.47 110.24 262.47 108.52Q262.47 106.75 261.70 105.43Q260.92 104.12 259.55 103.37Q258.18 102.63 256.29 102.63H248.74ZM274.54 137.52V94.91H290.90Q295.30 94.91 298.70 96.45Q302.11 97.99 304.05 101.03Q306.00 104.06 306.00 108.52Q306.00 112.87 304.02 115.90Q302.05 118.93 298.65 120.50Q295.24 122.08 290.90 122.08H283.40V137.52ZM283.40 114.35H290.95Q292.84 114.35 294.21 113.61Q295.59 112.87 296.36 111.55Q297.13 110.24 297.13 108.52Q297.13 106.75 296.36 105.43Q295.59 104.12 294.21 103.37Q292.84 102.63 290.95 102.63H283.40Z"/>
  <path fill="#9AAFB9" d="M201.56 170.95Q200.59 170.95 199.77 170.60Q198.96 170.25 198.35 169.62Q197.74 168.99 197.41 168.14Q197.07 167.28 197.07 166.27Q197.07 165.25 197.40 164.40Q197.74 163.54 198.34 162.91Q198.95 162.28 199.77 161.94Q200.59 161.59 201.56 161.59Q202.51 161.59 203.27 161.92Q204.04 162.25 204.56 162.78Q205.09 163.31 205.31 163.93L204.02 164.53Q203.74 163.81 203.10 163.35Q202.46 162.90 201.56 162.90Q200.66 162.90 199.97 163.32Q199.27 163.75 198.89 164.50Q198.50 165.26 198.50 166.27Q198.50 167.27 198.89 168.03Q199.27 168.79 199.97 169.22Q200.66 169.64 201.56 169.64Q202.46 169.64 203.10 169.18Q203.74 168.73 204.02 168.01L205.31 168.61Q205.09 169.22 204.56 169.76Q204.04 170.29 203.27 170.62Q202.51 170.95 201.56 170.95ZM210.81 170.80V161.73H214.10Q215.01 161.73 215.71 162.07Q216.40 162.41 216.80 163.05Q217.19 163.68 217.19 164.57Q217.19 165.51 216.72 166.18Q216.26 166.85 215.47 167.15L217.56 170.80H215.93L213.70 166.85L214.64 167.39H212.24V170.80ZM212.24 166.12H214.13Q214.62 166.12 214.99 165.92Q215.35 165.73 215.56 165.38Q215.76 165.03 215.76 164.56Q215.76 164.09 215.56 163.74Q215.35 163.40 214.99 163.20Q214.62 163.01 214.13 163.01H212.24ZM222.78 170.80V161.73H228.75V163.01H224.21V165.62H228.51V166.89H224.21V169.52H228.75V170.80ZM233.31 170.80 236.49 161.73H238.27L241.46 170.80H239.92L239.23 168.77H235.54L234.84 170.80ZM235.96 167.49H238.79L237.18 162.74H237.58ZM248.14 170.80V163.01H245.74V161.73H251.95V163.01H249.57V170.80ZM257.03 170.80V161.73H258.46V170.80ZM266.77 170.80 263.56 161.73H265.09L267.72 169.47H267.42L270.04 161.73H271.59L268.37 170.80ZM276.67 170.80V161.73H282.64V163.01H278.10V165.62H282.40V166.89H278.10V169.52H282.64V170.80ZM294.15 170.80V161.73H297.44Q298.36 161.73 299.05 162.07Q299.75 162.41 300.14 163.05Q300.53 163.68 300.53 164.57Q300.53 165.45 300.14 166.08Q299.74 166.71 299.05 167.05Q298.36 167.39 297.44 167.39H295.58V170.80ZM295.58 166.12H297.47Q297.97 166.12 298.33 165.92Q298.70 165.73 298.90 165.38Q299.10 165.03 299.10 164.56Q299.10 164.09 298.90 163.74Q298.70 163.40 298.33 163.20Q297.97 163.01 297.47 163.01H295.58ZM306.02 170.80V161.73H309.31Q310.23 161.73 310.92 162.07Q311.62 162.41 312.01 163.05Q312.40 163.68 312.40 164.57Q312.40 165.51 311.94 166.18Q311.47 166.85 310.68 167.15L312.77 170.80H311.14L308.92 166.85L309.85 167.39H307.45V170.80ZM307.45 166.12H309.34Q309.84 166.12 310.20 165.92Q310.57 165.73 310.77 165.38Q310.97 165.03 310.97 164.56Q310.97 164.09 310.77 163.74Q310.57 163.40 310.20 163.20Q309.84 163.01 309.34 163.01H307.45ZM322.40 170.95Q321.41 170.95 320.57 170.60Q319.72 170.25 319.08 169.61Q318.45 168.98 318.09 168.13Q317.73 167.27 317.73 166.26Q317.73 165.25 318.08 164.40Q318.44 163.54 319.07 162.91Q319.71 162.28 320.56 161.94Q321.41 161.59 322.40 161.59Q323.39 161.59 324.24 161.94Q325.09 162.29 325.72 162.92Q326.36 163.55 326.72 164.40Q327.07 165.25 327.07 166.26Q327.07 167.27 326.71 168.13Q326.35 168.98 325.72 169.61Q325.08 170.25 324.23 170.60Q323.39 170.95 322.40 170.95ZM322.40 169.64Q323.11 169.64 323.70 169.38Q324.29 169.13 324.72 168.67Q325.16 168.21 325.40 167.59Q325.64 166.98 325.64 166.26Q325.64 165.55 325.40 164.94Q325.16 164.33 324.72 163.86Q324.29 163.40 323.70 163.15Q323.11 162.90 322.40 162.90Q321.69 162.90 321.10 163.15Q320.51 163.40 320.08 163.86Q319.64 164.33 319.40 164.94Q319.16 165.55 319.16 166.26Q319.16 166.98 319.40 167.59Q319.64 168.21 320.08 168.67Q320.51 169.13 321.11 169.38Q321.70 169.64 322.40 169.64ZM336.94 170.95Q335.97 170.95 335.15 170.60Q334.33 170.25 333.72 169.62Q333.11 168.99 332.77 168.14Q332.43 167.28 332.43 166.27Q332.43 165.25 332.76 164.40Q333.10 163.54 333.70 162.91Q334.31 162.28 335.12 161.94Q335.94 161.59 336.92 161.59Q337.87 161.59 338.63 161.92Q339.39 162.25 339.92 162.78Q340.44 163.31 340.67 163.93L339.40 164.55Q339.11 163.80 338.47 163.35Q337.83 162.90 336.92 162.90Q336.02 162.90 335.32 163.32Q334.63 163.75 334.24 164.50Q333.86 165.26 333.86 166.27Q333.86 167.27 334.25 168.03Q334.65 168.79 335.34 169.22Q336.04 169.64 336.94 169.64Q337.69 169.64 338.32 169.32Q338.95 169.01 339.32 168.45Q339.70 167.89 339.70 167.13V166.50L340.35 167.09H336.92V165.87H341.13V166.73Q341.13 167.73 340.79 168.51Q340.44 169.30 339.86 169.84Q339.27 170.39 338.52 170.67Q337.76 170.95 336.94 170.95ZM346.60 170.80V161.73H349.89Q350.81 161.73 351.50 162.07Q352.20 162.41 352.59 163.05Q352.98 163.68 352.98 164.57Q352.98 165.51 352.52 166.18Q352.05 166.85 351.26 167.15L353.36 170.80H351.72L349.50 166.85L350.43 167.39H348.03V170.80ZM348.03 166.12H349.92Q350.42 166.12 350.78 165.92Q351.15 165.73 351.35 165.38Q351.55 165.03 351.55 164.56Q351.55 164.09 351.35 163.74Q351.15 163.40 350.78 163.20Q350.42 163.01 349.92 163.01H348.03ZM357.77 170.80 360.96 161.73H362.74L365.92 170.80H364.39L363.69 168.77H360.00L359.31 170.80ZM360.42 167.49H363.26L361.65 162.74H362.05ZM371.01 170.80V161.73H372.35L375.75 166.46H375.09L378.43 161.73H379.77V170.80H378.34V163.43L378.88 163.58L375.46 168.24H375.32L371.97 163.58L372.44 163.43V170.80ZM385.66 170.80V161.73H387.00L390.40 166.46H389.74L393.08 161.73H394.42V170.80H392.99V163.43L393.53 163.58L390.11 168.24H389.97L386.62 163.58L387.09 163.43V170.80ZM400.31 170.80V161.73H401.74V170.80ZM407.64 170.80V161.73H408.79L413.88 168.76L413.33 168.85V161.73H414.75V170.80H413.60L408.55 163.73L409.07 163.64V170.80ZM424.89 170.95Q423.92 170.95 423.10 170.60Q422.28 170.25 421.67 169.62Q421.06 168.99 420.72 168.14Q420.38 167.28 420.38 166.27Q420.38 165.25 420.71 164.40Q421.05 163.54 421.65 162.91Q422.26 162.28 423.07 161.94Q423.89 161.59 424.87 161.59Q425.82 161.59 426.58 161.92Q427.34 162.25 427.87 162.78Q428.40 163.31 428.62 163.93L427.35 164.55Q427.06 163.80 426.42 163.35Q425.78 162.90 424.87 162.90Q423.97 162.90 423.27 163.32Q422.58 163.75 422.19 164.50Q421.81 165.26 421.81 166.27Q421.81 167.27 422.20 168.03Q422.60 168.79 423.29 169.22Q423.99 169.64 424.89 169.64Q425.65 169.64 426.27 169.32Q426.90 169.01 427.27 168.45Q427.65 167.89 427.65 167.13V166.50L428.30 167.09H424.87V165.87H429.08V166.73Q429.08 167.73 428.74 168.51Q428.40 169.30 427.81 169.84Q427.22 170.39 426.47 170.67Q425.71 170.95 424.89 170.95ZM440.70 170.80V161.73H443.99Q444.91 161.73 445.60 162.07Q446.30 162.41 446.69 163.05Q447.09 163.68 447.09 164.57Q447.09 165.45 446.69 166.08Q446.29 166.71 445.60 167.05Q444.91 167.39 443.99 167.39H442.13V170.80ZM442.13 166.12H444.02Q444.52 166.12 444.88 165.92Q445.25 165.73 445.45 165.38Q445.66 165.03 445.66 164.56Q445.66 164.09 445.45 163.74Q445.25 163.40 444.88 163.20Q444.52 163.01 444.02 163.01H442.13ZM451.77 170.80 454.96 161.73H456.73L459.92 170.80H458.38L457.69 168.77H454.00L453.30 170.80ZM454.42 167.49H457.26L455.65 162.74H456.05ZM465.01 170.80V161.73H468.30Q469.21 161.73 469.91 162.07Q470.61 162.41 471.00 163.05Q471.39 163.68 471.39 164.57Q471.39 165.51 470.93 166.18Q470.46 166.85 469.67 167.15L471.76 170.80H470.13L467.90 166.85L468.84 167.39H466.44V170.80ZM466.44 166.12H468.33Q468.82 166.12 469.19 165.92Q469.55 165.73 469.76 165.38Q469.96 165.03 469.96 164.56Q469.96 164.09 469.76 163.74Q469.55 163.40 469.19 163.20Q468.82 163.01 468.33 163.01H466.44ZM478.58 170.80V163.01H476.18V161.73H482.38V163.01H480.01V170.80ZM487.47 170.80V161.73H488.62L493.71 168.76L493.16 168.85V161.73H494.59V170.80H493.43L488.38 163.73L488.90 163.64V170.80ZM500.48 170.80V161.73H506.45V163.01H501.91V165.62H506.20V166.89H501.91V169.52H506.45V170.80ZM511.81 170.80V161.73H515.10Q516.01 161.73 516.71 162.07Q517.40 162.41 517.80 163.05Q518.19 163.68 518.19 164.57Q518.19 165.51 517.72 166.18Q517.26 166.85 516.47 167.15L518.56 170.80H516.93L514.70 166.85L515.64 167.39H513.24V170.80ZM513.24 166.12H515.13Q515.62 166.12 515.99 165.92Q516.35 165.73 516.56 165.38Q516.76 165.03 516.76 164.56Q516.76 164.09 516.56 163.74Q516.35 163.40 515.99 163.20Q515.62 163.01 515.13 163.01H513.24ZM526.96 170.95Q526.10 170.95 525.37 170.63Q524.64 170.31 524.13 169.74Q523.62 169.18 523.38 168.46L524.59 167.95Q524.92 168.78 525.55 169.23Q526.19 169.69 527.02 169.69Q527.50 169.69 527.87 169.53Q528.23 169.38 528.43 169.10Q528.63 168.82 528.63 168.45Q528.63 167.96 528.35 167.66Q528.07 167.37 527.52 167.20L525.82 166.67Q524.80 166.35 524.26 165.70Q523.73 165.04 523.73 164.17Q523.73 163.41 524.11 162.83Q524.48 162.25 525.14 161.92Q525.81 161.59 526.66 161.59Q527.47 161.59 528.15 161.88Q528.82 162.17 529.30 162.67Q529.77 163.16 530.00 163.82L528.81 164.34Q528.53 163.62 527.97 163.23Q527.41 162.85 526.66 162.85Q526.21 162.85 525.87 163.00Q525.53 163.15 525.34 163.44Q525.15 163.72 525.15 164.10Q525.15 164.53 525.43 164.87Q525.71 165.21 526.28 165.39L527.87 165.88Q528.95 166.22 529.50 166.83Q530.04 167.45 530.04 168.35Q530.04 169.11 529.65 169.70Q529.26 170.28 528.56 170.61Q527.87 170.95 526.96 170.95Z"/>
  <path fill="#F4F7F5" d="M86.58 400.00V352.32H94.90L112.77 376.58H108.78L126.26 352.32H134.58V400.00H125.86V362.26L129.25 363.09L111.09 387.20H110.06L92.40 363.09L95.30 362.26V400.00ZM157.95 400.77Q152.58 400.77 148.54 398.34Q144.50 395.90 142.26 391.76Q140.02 387.62 140.02 382.53Q140.02 377.30 142.31 373.22Q144.61 369.15 148.52 366.80Q152.43 364.45 157.34 364.45Q161.39 364.45 164.52 365.78Q167.65 367.10 169.82 369.46Q171.98 371.82 173.12 374.88Q174.26 377.94 174.26 381.44Q174.26 382.37 174.17 383.31Q174.08 384.26 173.86 384.99H146.98V378.59H169.09L165.10 381.57Q165.73 378.62 164.86 376.32Q163.98 374.02 162.02 372.67Q160.06 371.33 157.34 371.33Q154.67 371.33 152.65 372.66Q150.62 373.98 149.57 376.50Q148.51 379.02 148.74 382.59Q148.46 385.82 149.59 388.26Q150.72 390.70 152.92 392.06Q155.12 393.41 158.05 393.41Q160.91 393.41 162.92 392.19Q164.93 390.98 166.10 388.96L172.88 392.24Q171.86 394.74 169.67 396.66Q167.49 398.59 164.50 399.68Q161.52 400.77 157.95 400.77ZM178.99 400.00V365.22H186.91V372.06L186.26 370.85Q187.49 367.66 190.26 366.06Q193.02 364.45 196.72 364.45Q200.61 364.45 203.57 366.11Q206.53 367.78 208.20 370.74Q209.87 373.70 209.87 377.60V400.00H201.47V379.58Q201.47 377.26 200.59 375.62Q199.71 373.97 198.12 373.05Q196.54 372.13 194.47 372.13Q192.40 372.13 190.78 373.05Q189.17 373.97 188.28 375.62Q187.39 377.28 187.39 379.58V400.00ZM232.37 400.77Q227.26 400.77 223.08 398.41Q218.90 396.05 216.42 391.94Q213.94 387.82 213.94 382.59Q213.94 377.33 216.41 373.25Q218.88 369.17 223.06 366.81Q227.23 364.45 232.37 364.45Q237.50 364.45 241.66 366.80Q245.81 369.15 248.27 373.23Q250.74 377.31 250.74 382.59Q250.74 387.84 248.25 391.95Q245.76 396.06 241.61 398.42Q237.46 400.77 232.37 400.77ZM232.37 393.09Q235.20 393.09 237.36 391.74Q239.52 390.40 240.77 388.02Q242.02 385.63 242.02 382.59Q242.02 379.55 240.77 377.21Q239.52 374.86 237.36 373.50Q235.20 372.13 232.37 372.13Q229.54 372.13 227.35 373.50Q225.17 374.86 223.91 377.21Q222.66 379.55 222.66 382.59Q222.66 385.63 223.91 388.02Q225.17 390.40 227.35 391.74Q229.54 393.09 232.37 393.09ZM268.72 400.77Q263.17 400.77 259.05 398.10Q254.93 395.44 253.36 390.91L259.65 387.94Q261.02 390.83 263.42 392.50Q265.81 394.16 268.72 394.16Q271.02 394.16 272.37 393.16Q273.71 392.16 273.71 390.45Q273.71 389.42 273.17 388.75Q272.62 388.08 271.71 387.60Q270.80 387.12 269.68 386.82L263.98 385.22Q259.58 383.97 257.33 381.32Q255.07 378.67 255.07 375.09Q255.07 371.89 256.70 369.50Q258.34 367.12 261.25 365.78Q264.16 364.45 267.89 364.45Q272.82 364.45 276.61 366.82Q280.40 369.18 281.97 373.46L275.62 376.43Q274.72 374.08 272.61 372.69Q270.50 371.30 267.84 371.30Q265.73 371.30 264.50 372.24Q263.28 373.18 263.28 374.75Q263.28 375.71 263.79 376.40Q264.30 377.09 265.25 377.55Q266.19 378.02 267.38 378.37L272.98 380.03Q277.28 381.30 279.59 383.88Q281.90 386.46 281.90 390.16Q281.90 393.31 280.24 395.70Q278.58 398.08 275.63 399.42Q272.69 400.77 268.72 400.77ZM300.61 400.00V372.66H294.48V365.22H300.61V364.06Q300.61 360.05 302.23 357.27Q303.86 354.50 306.82 353.02Q309.78 351.55 313.79 351.55Q314.58 351.55 315.50 351.65Q316.43 351.74 317.04 351.87V359.10Q316.45 358.98 315.90 358.94Q315.34 358.91 314.88 358.91Q312.10 358.91 310.55 360.17Q309.01 361.42 309.01 364.06V365.22H316.72V372.66H309.01V400.00ZM320.94 400.00V365.22H328.86V372.91L328.22 371.79Q329.39 367.87 332.00 366.34Q334.61 364.82 338.22 364.82H340.30V372.26H337.30Q333.73 372.26 331.54 374.44Q329.34 376.62 329.34 380.61V400.00ZM343.28 400.00V365.22H351.68V400.00ZM343.28 361.28V352.32H351.68V361.28ZM374.59 400.77Q369.39 400.77 365.29 398.38Q361.18 395.98 358.79 391.85Q356.40 387.71 356.40 382.54Q356.40 377.38 358.77 373.27Q361.14 369.17 365.26 366.81Q369.39 364.45 374.59 364.45Q378.32 364.45 381.52 365.74Q384.72 367.04 387.04 369.33Q389.36 371.62 390.40 374.70L383.07 377.95Q382.08 375.30 379.82 373.71Q377.55 372.13 374.59 372.13Q371.87 372.13 369.73 373.46Q367.58 374.80 366.35 377.18Q365.12 379.55 365.12 382.61Q365.12 385.65 366.35 388.02Q367.58 390.40 369.73 391.74Q371.87 393.09 374.59 393.09Q377.60 393.09 379.83 391.50Q382.06 389.92 383.07 387.23L390.40 390.56Q389.41 393.49 387.09 395.81Q384.77 398.13 381.57 399.45Q378.37 400.77 374.59 400.77ZM411.90 400.77Q406.70 400.77 402.60 398.38Q398.50 395.98 396.10 391.85Q393.71 387.71 393.71 382.54Q393.71 377.38 396.08 373.27Q398.45 369.17 402.58 366.81Q406.70 364.45 411.90 364.45Q415.63 364.45 418.83 365.74Q422.03 367.04 424.35 369.33Q426.67 371.62 427.71 374.70L420.38 377.95Q419.39 375.30 417.13 373.71Q414.86 372.13 411.90 372.13Q409.18 372.13 407.04 373.46Q404.90 374.80 403.66 377.18Q402.43 379.55 402.43 382.61Q402.43 385.65 403.66 388.02Q404.90 390.40 407.04 391.74Q409.18 393.09 411.90 393.09Q414.91 393.09 417.14 391.50Q419.38 389.92 420.38 387.23L427.71 390.56Q426.72 393.49 424.40 395.81Q422.08 398.13 418.88 399.45Q415.68 400.77 411.90 400.77ZM432.43 400.00V365.22H440.83V400.00ZM432.43 361.28V352.32H440.83V361.28ZM463.98 400.77Q458.88 400.77 454.70 398.41Q450.51 396.05 448.03 391.94Q445.55 387.82 445.55 382.59Q445.55 377.33 448.02 373.25Q450.50 369.17 454.67 366.81Q458.85 364.45 463.98 364.45Q469.12 364.45 473.27 366.80Q477.42 369.15 479.89 373.23Q482.35 377.31 482.35 382.59Q482.35 387.84 479.86 391.95Q477.38 396.06 473.22 398.42Q469.07 400.77 463.98 400.77ZM463.98 393.09Q466.82 393.09 468.98 391.74Q471.14 390.40 472.38 388.02Q473.63 385.63 473.63 382.59Q473.63 379.55 472.38 377.21Q471.14 374.86 468.98 373.50Q466.82 372.13 463.98 372.13Q461.15 372.13 458.97 373.50Q456.78 374.86 455.53 377.21Q454.27 379.55 454.27 382.59Q454.27 385.63 455.53 388.02Q456.78 390.40 458.97 391.74Q461.15 393.09 463.98 393.09ZM459.82 359.04 464.00 348.00H474.91L468.10 359.04ZM487.09 400.00V365.22H495.01V372.06L494.35 370.85Q495.58 367.66 498.35 366.06Q501.12 364.45 504.82 364.45Q508.70 364.45 511.66 366.11Q514.62 367.78 516.30 370.74Q517.97 373.70 517.97 377.60V400.00H509.57V379.58Q509.57 377.26 508.69 375.62Q507.81 373.97 506.22 373.05Q504.63 372.13 502.56 372.13Q500.50 372.13 498.88 373.05Q497.26 373.97 496.38 375.62Q495.49 377.28 495.49 379.58V400.00ZM527.41 400.00V391.04H535.89V400.00Z"/>
  <path fill="#5B8CFF" d="M150.63 429.50 150.12 431.75Q149.13 431.79 147.59 432.06Q146.05 432.34 145.30 432.58Q143.97 433.02 143.39 433.98Q142.81 434.93 142.53 436.03L134.36 471.33Q134.29 471.61 134.26 471.95Q134.23 472.29 134.23 472.50Q134.23 473.21 134.53 473.78Q134.84 474.34 135.56 474.79Q136.04 475.09 137.59 475.40Q139.15 475.71 140.04 475.74L139.49 478.00H118.13L118.67 475.74Q119.91 475.68 121.75 475.49Q123.60 475.30 124.35 474.92Q125.54 474.27 126.28 473.42Q127.01 472.57 127.25 471.33L135.63 435.21H135.25L108.76 477.21H107.16L101.07 434.35H100.73L93.86 464.16Q93.45 465.97 93.18 467.68Q92.90 469.39 92.90 470.45Q92.90 471.57 93.14 472.38Q93.38 473.18 93.83 473.69Q94.44 474.41 96.42 474.99Q98.41 475.57 99.53 475.74L98.99 478.00H79.40L79.95 475.74Q81.56 475.57 83.16 475.27Q84.77 474.96 86.14 474.10Q87.50 473.18 88.46 471.10Q89.42 469.01 90.41 464.53L96.22 439.38Q96.39 438.59 96.48 437.96Q96.56 437.33 96.56 436.71Q96.56 435.62 96.29 434.88Q96.01 434.15 95.57 433.63Q94.68 432.64 93.16 432.23Q91.64 431.82 90.37 431.75L90.89 429.50H107.22L112.52 465.97L131.39 435.45Q132.45 433.70 133.34 431.86Q134.23 430.01 134.36 429.50ZM170.70 473.49H170.46Q169.71 474.10 168.66 475.04Q167.62 475.98 166.22 476.84Q164.89 477.69 163.31 478.32Q161.74 478.96 159.90 478.96Q154.94 478.96 152.12 475.40Q149.30 471.85 149.30 465.70Q149.30 461.46 150.87 457.46Q152.44 453.46 155.21 450.28Q157.84 447.24 161.47 445.38Q165.09 443.51 168.92 443.51Q171.35 443.51 173.55 444.16Q175.75 444.81 177.02 445.63L183.27 444.03L183.68 444.54L178.49 466.58Q178.22 467.64 177.93 469.16Q177.63 470.69 177.63 471.40Q177.63 473.35 178.46 474.04Q179.28 474.72 181.22 474.72Q181.87 474.72 183.07 474.51Q184.27 474.31 184.92 474.07L184.40 476.26Q181.33 477.49 179.82 478.03Q178.32 478.58 176.17 478.58Q173.70 478.58 172.27 477.15Q170.83 475.71 170.70 473.49ZM175.58 451.89Q175.58 450.76 175.34 449.73Q175.11 448.71 174.35 447.82Q173.67 446.96 172.47 446.45Q171.28 445.94 169.47 445.94Q166.97 445.94 164.61 447.58Q162.25 449.22 160.37 451.99Q158.60 454.59 157.47 458.28Q156.34 461.97 156.34 465.76Q156.34 467.85 156.58 469.46Q156.82 471.06 157.50 472.39Q158.15 473.69 159.38 474.41Q160.61 475.13 162.49 475.13Q164.41 475.13 166.51 474.05Q168.61 472.98 171.24 470.28ZM178.49 427.89Q178.49 429.26 177.84 430.10Q177.19 430.93 175.86 431.96Q174.25 433.19 171.70 435.00Q169.16 436.81 164.82 440.06L163.59 438.97Q166.97 434.46 168.29 432.58Q169.60 430.70 171.11 428.44Q172.30 426.59 173.41 426.01Q174.52 425.43 175.82 425.43Q176.95 425.43 177.72 426.18Q178.49 426.94 178.49 427.89ZM199.37 478.99Q194.31 478.99 190.95 477.20Q187.58 475.40 187.58 472.50Q187.58 471.13 188.57 469.93Q189.56 468.74 191.00 468.74Q192.37 468.74 193.20 469.37Q194.04 470.00 194.52 470.86Q195.03 471.75 195.43 472.98Q195.82 474.21 196.09 474.99Q196.60 475.57 197.51 476.07Q198.42 476.56 200.12 476.56Q203.82 476.56 205.71 474.72Q207.61 472.87 207.61 469.73Q207.61 467.40 205.83 466.02Q204.06 464.64 200.54 463.47Q199.27 463.06 197.56 462.23Q195.85 461.39 194.83 460.43Q193.60 459.34 192.84 457.83Q192.09 456.33 192.09 454.28Q192.09 449.90 196.01 446.71Q199.92 443.51 205.63 443.51Q206.96 443.51 208.50 443.65Q210.04 443.79 211.88 444.40Q213.49 444.95 214.62 446.02Q215.75 447.10 215.75 448.81Q215.75 450.21 214.81 451.36Q213.87 452.50 212.33 452.50Q211.06 452.50 210.24 451.96Q209.42 451.41 208.88 450.49Q208.33 449.56 207.99 448.50Q207.64 447.44 207.23 446.42Q206.58 446.14 206.07 446.04Q205.56 445.94 204.71 445.94Q201.36 445.94 199.63 447.73Q197.90 449.53 197.90 451.99Q197.90 454.38 199.46 455.60Q201.01 456.81 204.60 458.11Q209.25 459.78 211.35 461.94Q213.46 464.09 213.46 467.27Q213.46 472.46 209.46 475.73Q205.46 478.99 199.37 478.99ZM273.34 474.04 272.83 476.22Q269.75 477.45 268.04 478.02Q266.33 478.58 264.59 478.58Q261.85 478.58 260.49 477.16Q259.12 475.74 259.12 473.66Q259.12 472.91 259.26 472.00Q259.39 471.10 259.70 469.87L263.05 457.12Q263.43 455.65 263.65 454.45Q263.87 453.25 263.87 452.54Q263.87 450.25 262.78 448.91Q261.68 447.58 259.53 447.58Q257.44 447.58 254.85 448.95Q252.25 450.31 249.96 452.91L244.18 478.00H237.83L242.92 455.85Q243.09 455.03 243.41 453.48Q243.74 451.92 243.74 450.96Q243.74 449.05 243.09 448.40Q242.44 447.75 240.49 447.75Q239.74 447.75 238.58 448.01Q237.42 448.26 236.77 448.43L237.28 446.25Q239.94 445.05 242.00 444.47Q244.05 443.89 245.52 443.89Q248.22 443.89 249.38 445.36Q250.54 446.83 250.61 449.43H250.81Q254.57 446.42 257.31 444.97Q260.04 443.51 263.53 443.51Q266.81 443.51 268.66 445.41Q270.50 447.31 270.50 450.38Q270.50 451.00 270.31 452.57Q270.12 454.14 269.71 455.68L266.84 466.65Q266.54 467.75 266.25 469.16Q265.96 470.58 265.96 471.37Q265.96 473.32 266.81 474.02Q267.66 474.72 269.61 474.72Q270.26 474.72 271.48 474.50Q272.69 474.27 273.34 474.04ZM307.00 450.62Q307.00 454.25 304.73 456.84Q302.46 459.44 298.12 460.98Q294.94 462.14 291.69 462.86Q288.45 463.58 284.51 464.05Q284.51 469.46 286.51 472.31Q288.51 475.16 292.38 475.16Q295.79 475.16 298.41 473.45Q301.02 471.75 303.55 468.36L305.50 469.80Q302.77 473.97 298.67 476.46Q294.56 478.96 290.15 478.96Q284.10 478.96 280.91 475.57Q277.71 472.19 277.71 465.97Q277.71 461.66 279.06 457.75Q280.41 453.83 283.01 450.59Q285.54 447.41 289.21 445.46Q292.89 443.51 297.33 443.51Q302.25 443.51 304.63 445.51Q307.00 447.51 307.00 450.62ZM300.72 449.77Q300.72 448.43 300.34 447.67Q299.96 446.90 299.38 446.52Q298.77 446.11 298.08 446.01Q297.40 445.91 296.68 445.91Q292.58 445.91 289.11 450.42Q285.64 454.93 284.72 461.66Q287.11 461.32 290.12 460.69Q293.13 460.06 295.11 459.03Q297.95 457.56 299.33 455.25Q300.72 452.95 300.72 449.77ZM332.61 473.39 332.37 473.32Q331.68 473.86 330.44 474.86Q329.19 475.85 327.82 476.60Q326.25 477.52 324.64 478.10Q323.04 478.68 321.09 478.68Q316.13 478.68 313.45 475.18Q310.76 471.68 310.76 465.52Q310.76 461.29 312.32 457.29Q313.88 453.29 316.58 450.18Q319.17 447.17 322.80 445.34Q326.42 443.51 330.38 443.51Q332.84 443.51 335.03 444.15Q337.22 444.78 338.55 445.63L344.81 444.03L345.22 444.54L339.48 471.47Q338.18 477.59 336.14 481.81Q334.11 486.03 331.44 488.49Q328.71 491.02 325.41 492.10Q322.11 493.18 317.94 493.18Q315.11 493.18 313.31 492.73Q311.52 492.29 310.49 491.57Q309.47 490.85 309.11 489.95Q308.75 489.04 308.75 488.22Q308.75 486.68 309.67 485.64Q310.59 484.60 312.20 484.60Q313.46 484.60 314.35 485.33Q315.24 486.07 315.79 486.92Q316.37 487.81 316.92 489.04Q317.46 490.27 317.74 490.89H318.76Q320.64 490.89 322.80 490.03Q324.95 489.18 326.73 487.26Q328.54 485.28 330.11 481.95Q331.68 478.62 332.61 473.39ZM337.19 451.54Q337.19 450.59 336.90 449.58Q336.60 448.57 335.82 447.72Q335.07 446.90 333.90 446.42Q332.74 445.94 330.93 445.94Q328.30 445.94 325.96 447.53Q323.62 449.12 321.74 451.89Q319.99 454.48 318.90 458.18Q317.81 461.87 317.81 465.59Q317.81 467.61 318.10 469.30Q318.39 470.99 319.10 472.26Q319.82 473.52 321.00 474.22Q322.18 474.92 324.06 474.92Q326.45 474.92 328.81 473.54Q331.17 472.16 333.29 470.00ZM383.77 456.95Q383.77 460.98 382.41 465.01Q381.04 469.04 378.44 472.09Q375.81 475.23 372.10 477.13Q368.39 479.03 363.50 479.03Q357.83 479.03 354.29 475.37Q350.75 471.71 350.75 465.52Q350.75 460.98 352.26 457.05Q353.76 453.12 356.29 450.14Q358.86 447.17 362.63 445.34Q366.41 443.51 370.82 443.51Q376.90 443.51 380.34 447.22Q383.77 450.93 383.77 456.95ZM376.80 455.65Q376.80 450.79 375.07 448.37Q373.35 445.94 370.10 445.94Q367.26 445.94 364.75 447.68Q362.24 449.43 360.43 453.36Q359.03 456.33 358.38 459.97Q357.73 463.61 357.73 466.69Q357.73 471.57 359.42 474.09Q361.11 476.60 364.53 476.60Q367.57 476.60 369.93 474.68Q372.29 472.77 373.76 469.83Q375.23 466.96 376.01 463.25Q376.80 459.54 376.80 455.65ZM401.27 478.96Q395.29 478.96 391.82 475.47Q388.35 471.98 388.35 465.56Q388.35 461.29 389.67 457.37Q390.98 453.46 393.34 450.42Q395.70 447.38 399.31 445.44Q402.91 443.51 407.32 443.51Q412.21 443.51 414.76 445.58Q417.30 447.65 417.30 450.79Q417.30 453.15 416.19 454.93Q415.08 456.71 412.86 456.71Q411.01 456.71 410.09 455.78Q409.17 454.86 409.17 453.73Q409.17 452.64 409.92 450.74Q410.67 448.84 411.12 447.68Q410.74 446.76 409.44 446.33Q408.14 445.91 406.74 445.91Q402.09 445.91 398.73 451.32Q395.36 456.74 395.36 464.60Q395.36 469.46 397.53 472.31Q399.70 475.16 403.39 475.16Q406.71 475.16 409.29 473.39Q411.87 471.61 414.23 468.36L416.17 469.80Q413.82 473.52 409.77 476.24Q405.72 478.96 401.27 478.96ZM436.65 474.27 436.14 476.46Q432.99 477.73 431.11 478.22Q429.23 478.72 427.90 478.72Q425.16 478.72 423.80 477.30Q422.43 475.88 422.43 473.80Q422.43 473.01 422.57 472.16Q422.70 471.30 423.01 470.00L426.63 455.48Q426.91 454.28 427.16 452.91Q427.42 451.54 427.42 450.59Q427.42 448.67 426.79 448.04Q426.16 447.41 424.21 447.41Q423.46 447.41 422.21 447.65Q420.96 447.89 420.31 448.06L420.82 445.87Q423.49 444.67 425.61 444.09Q427.73 443.51 428.96 443.51Q431.76 443.51 433.03 444.85Q434.29 446.18 434.29 448.43Q434.29 449.05 434.15 450.11Q434.02 451.17 433.74 452.23L430.09 466.75Q429.74 468.09 429.49 469.37Q429.23 470.65 429.23 471.47Q429.23 473.42 430.10 474.14Q430.97 474.86 432.92 474.86Q433.57 474.86 434.79 474.68Q436.00 474.51 436.65 474.27ZM439.08 430.59Q439.08 432.54 437.81 433.99Q436.55 435.45 434.67 435.45Q432.92 435.45 431.66 434.06Q430.39 432.68 430.39 430.90Q430.39 429.02 431.66 427.62Q432.92 426.22 434.67 426.22Q436.61 426.22 437.84 427.53Q439.08 428.85 439.08 430.59ZM473.94 456.95Q473.94 460.98 472.57 465.01Q471.20 469.04 468.61 472.09Q465.97 475.23 462.27 477.13Q458.56 479.03 453.67 479.03Q448.00 479.03 444.46 475.37Q440.92 471.71 440.92 465.52Q440.92 460.98 442.42 457.05Q443.93 453.12 446.46 450.14Q449.02 447.17 452.80 445.34Q456.58 443.51 460.98 443.51Q467.07 443.51 470.50 447.22Q473.94 450.93 473.94 456.95ZM466.97 455.65Q466.97 450.79 465.24 448.37Q463.51 445.94 460.27 445.94Q457.43 445.94 454.92 447.68Q452.41 449.43 450.59 453.36Q449.19 456.33 448.54 459.97Q447.89 463.61 447.89 466.69Q447.89 471.57 449.59 474.09Q451.28 476.60 454.70 476.60Q457.74 476.60 460.10 474.68Q462.45 472.77 463.92 469.83Q465.39 466.96 466.18 463.25Q466.97 459.54 466.97 455.65ZM489.90 474.07Q489.90 475.98 488.52 477.33Q487.13 478.68 485.22 478.68Q483.30 478.68 481.92 477.33Q480.54 475.98 480.54 474.07Q480.54 472.16 481.92 470.77Q483.30 469.39 485.22 469.39Q487.13 469.39 488.52 470.77Q489.90 472.16 489.90 474.07Z"/>
  <path fill="#5B8CFF" d="M82.00,520.00 140.00,520.00 140.00,523.00 82.00,523.00Z"/>
  <path fill="#9AAFB9" d="M85.96 565.00 82.20 551.59H84.05L87.21 563.40H86.77L90.04 551.59H91.90L95.15 563.40H94.71L97.88 551.59H99.73L95.96 565.00H94.01L90.73 553.25H91.20L87.92 565.00ZM102.61 565.00V551.59H111.35V553.21H104.39V557.47H110.99V559.09H104.39V563.38H111.35V565.00ZM114.72 565.00V551.59H120.36Q121.56 551.59 122.44 552.02Q123.31 552.46 123.79 553.24Q124.26 554.03 124.26 555.10Q124.26 556.10 123.75 556.90Q123.25 557.70 122.25 558.15L122.24 557.48Q123.10 557.80 123.67 558.34Q124.24 558.87 124.52 559.56Q124.81 560.25 124.81 561.03Q124.81 562.87 123.62 563.94Q122.43 565.00 120.38 565.00ZM116.50 563.38H120.46Q121.63 563.38 122.33 562.75Q123.03 562.12 123.03 561.04Q123.03 559.96 122.33 559.32Q121.63 558.68 120.46 558.68H116.50ZM116.50 557.10H120.33Q121.30 557.10 121.89 556.54Q122.48 555.97 122.48 555.08Q122.48 554.17 121.89 553.68Q121.30 553.19 120.33 553.19H116.50ZM133.18 561.23V559.07H134.93V561.23ZM143.91 565.00V551.59H148.65Q149.99 551.59 151.00 552.10Q152.01 552.60 152.57 553.54Q153.14 554.47 153.14 555.74Q153.14 557.00 152.57 557.93Q152.00 558.85 151.00 559.36Q149.99 559.87 148.65 559.87H145.69V565.00ZM145.69 558.25H148.71Q149.51 558.25 150.10 557.94Q150.70 557.63 151.03 557.06Q151.36 556.50 151.36 555.73Q151.36 554.95 151.03 554.39Q150.70 553.83 150.10 553.52Q149.51 553.21 148.71 553.21H145.69ZM156.72 565.00V551.59H161.46Q162.79 551.59 163.80 552.10Q164.81 552.60 165.38 553.54Q165.94 554.47 165.94 555.74Q165.94 557.15 165.22 558.14Q164.51 559.14 163.28 559.57L166.40 565.00H164.34L161.06 559.19L162.24 559.87H158.50V565.00ZM158.50 558.25H161.52Q162.31 558.25 162.91 557.94Q163.50 557.63 163.83 557.06Q164.16 556.50 164.16 555.73Q164.16 554.95 163.83 554.39Q163.50 553.83 162.91 553.52Q162.31 553.21 161.52 553.21H158.50ZM176.00 565.22Q174.57 565.22 173.34 564.70Q172.10 564.19 171.17 563.25Q170.24 562.32 169.72 561.06Q169.19 559.79 169.19 558.29Q169.19 556.78 169.71 555.52Q170.24 554.25 171.17 553.32Q172.10 552.39 173.33 551.88Q174.57 551.37 176.00 551.37Q177.44 551.37 178.67 551.89Q179.91 552.40 180.84 553.33Q181.77 554.26 182.29 555.52Q182.81 556.78 182.81 558.29Q182.81 559.79 182.29 561.06Q181.76 562.32 180.83 563.25Q179.90 564.19 178.67 564.70Q177.43 565.22 176.00 565.22ZM176.00 563.57Q177.11 563.57 178.03 563.17Q178.94 562.76 179.62 562.04Q180.29 561.31 180.67 560.35Q181.04 559.39 181.04 558.29Q181.04 557.19 180.67 556.24Q180.29 555.28 179.62 554.55Q178.94 553.82 178.03 553.42Q177.11 553.02 176.00 553.02Q174.89 553.02 173.98 553.42Q173.06 553.82 172.38 554.55Q171.71 555.28 171.34 556.24Q170.97 557.19 170.97 558.29Q170.97 559.39 171.34 560.35Q171.71 561.31 172.38 562.04Q173.06 562.76 173.98 563.17Q174.91 563.57 176.00 563.57ZM186.59 565.00V551.59H190.99Q193.03 551.59 194.54 552.42Q196.05 553.25 196.88 554.76Q197.70 556.26 197.70 558.29Q197.70 560.30 196.88 561.81Q196.05 563.33 194.54 564.16Q193.03 565.00 190.99 565.00ZM188.37 563.38H191.01Q192.50 563.38 193.59 562.75Q194.68 562.13 195.27 560.98Q195.87 559.84 195.87 558.28Q195.87 556.73 195.27 555.59Q194.66 554.46 193.57 553.83Q192.48 553.21 191.01 553.21H188.37ZM206.00 565.22Q204.53 565.22 203.41 564.60Q202.29 563.99 201.67 562.93Q201.05 561.86 201.05 560.49V551.59H202.82V560.45Q202.82 561.37 203.23 562.08Q203.63 562.79 204.35 563.18Q205.06 563.57 206.00 563.57Q206.94 563.57 207.65 563.18Q208.36 562.79 208.76 562.08Q209.17 561.37 209.17 560.45V551.59H210.95V560.49Q210.95 561.86 210.32 562.93Q209.70 563.99 208.59 564.60Q207.47 565.22 206.00 565.22ZM221.22 565.22Q219.79 565.22 218.59 564.70Q217.39 564.19 216.51 563.26Q215.62 562.33 215.13 561.07Q214.64 559.81 214.64 558.30Q214.64 556.79 215.13 555.53Q215.62 554.27 216.50 553.33Q217.39 552.40 218.59 551.89Q219.79 551.37 221.22 551.37Q222.61 551.37 223.72 551.86Q224.82 552.35 225.59 553.12Q226.35 553.90 226.68 554.78L225.05 555.52Q224.58 554.40 223.59 553.71Q222.60 553.02 221.22 553.02Q219.81 553.02 218.72 553.68Q217.64 554.35 217.03 555.53Q216.42 556.72 216.42 558.30Q216.42 559.87 217.03 561.06Q217.64 562.25 218.72 562.91Q219.81 563.57 221.22 563.57Q222.60 563.57 223.59 562.89Q224.58 562.20 225.05 561.08L226.68 561.82Q226.35 562.69 225.59 563.47Q224.82 564.24 223.72 564.73Q222.61 565.22 221.22 565.22ZM232.60 565.00V553.21H228.97V551.59H237.97V553.21H234.38V565.00ZM247.27 565.22Q245.84 565.22 244.60 564.70Q243.37 564.19 242.44 563.25Q241.51 562.32 240.98 561.06Q240.46 559.79 240.46 558.29Q240.46 556.78 240.98 555.52Q241.51 554.25 242.43 553.32Q243.36 552.39 244.60 551.88Q245.83 551.37 247.27 551.37Q248.71 551.37 249.94 551.89Q251.18 552.40 252.11 553.33Q253.03 554.26 253.56 555.52Q254.08 556.78 254.08 558.29Q254.08 559.79 253.56 561.06Q253.03 562.32 252.10 563.25Q251.17 564.19 249.94 564.70Q248.70 565.22 247.27 565.22ZM247.27 563.57Q248.38 563.57 249.29 563.17Q250.21 562.76 250.89 562.04Q251.56 561.31 251.93 560.35Q252.31 559.39 252.31 558.29Q252.31 557.19 251.93 556.24Q251.56 555.28 250.89 554.55Q250.21 553.82 249.29 553.42Q248.38 553.02 247.27 553.02Q246.16 553.02 245.25 553.42Q244.33 553.82 243.65 554.55Q242.98 555.28 242.61 556.24Q242.23 557.19 242.23 558.29Q242.23 559.39 242.61 560.35Q242.98 561.31 243.65 562.04Q244.33 562.76 245.25 563.17Q246.18 563.57 247.27 563.57ZM262.17 565.00V551.59H266.57Q268.61 551.59 270.12 552.42Q271.63 553.25 272.46 554.76Q273.29 556.26 273.29 558.29Q273.29 560.30 272.46 561.81Q271.63 563.33 270.12 564.16Q268.61 565.00 266.57 565.00ZM263.95 563.38H266.59Q268.08 563.38 269.17 562.75Q270.26 562.13 270.86 560.98Q271.45 559.84 271.45 558.28Q271.45 556.73 270.85 555.59Q270.24 554.46 269.16 553.83Q268.07 553.21 266.59 553.21H263.95ZM276.71 565.00V551.59H278.49V565.00ZM288.86 565.22Q287.44 565.22 286.23 564.70Q285.03 564.19 284.14 563.26Q283.26 562.33 282.76 561.07Q282.27 559.81 282.27 558.30Q282.27 556.79 282.76 555.53Q283.25 554.27 284.13 553.33Q285.01 552.40 286.21 551.89Q287.41 551.37 288.84 551.37Q290.23 551.37 291.34 551.86Q292.45 552.35 293.21 553.12Q293.97 553.90 294.30 554.78L292.71 555.55Q292.25 554.39 291.25 553.70Q290.26 553.02 288.84 553.02Q287.44 553.02 286.35 553.68Q285.26 554.35 284.65 555.53Q284.04 556.72 284.04 558.30Q284.04 559.87 284.66 561.06Q285.28 562.25 286.37 562.91Q287.46 563.57 288.86 563.57Q290.08 563.57 291.07 563.05Q292.06 562.53 292.64 561.62Q293.22 560.70 293.22 559.50V558.66L294.03 559.42H288.84V557.89H295.00V559.08Q295.00 560.48 294.51 561.61Q294.03 562.75 293.18 563.55Q292.33 564.36 291.22 564.79Q290.11 565.22 288.86 565.22ZM298.57 565.00V551.59H300.34V565.00ZM306.86 565.00V553.21H303.23V551.59H312.23V553.21H308.64V565.00ZM313.83 565.00 318.63 551.59H320.72L325.53 565.00H323.63L322.54 561.86H316.82L315.72 565.00ZM317.37 560.24H321.97L319.42 552.88H319.93ZM328.41 565.00V551.59H330.19V563.38H336.06V565.00ZM344.04 561.23V559.07H345.80V561.23ZM353.49 565.00 358.29 551.59H360.38L365.19 565.00H363.29L362.20 561.86H356.48L355.38 565.00ZM357.03 560.24H361.63L359.08 552.88H359.59ZM372.94 565.22Q371.48 565.22 370.36 564.60Q369.24 563.99 368.61 562.93Q367.99 561.86 367.99 560.49V551.59H369.77V560.45Q369.77 561.37 370.17 562.08Q370.58 562.79 371.29 563.18Q372.00 563.57 372.94 563.57Q373.88 563.57 374.59 563.18Q375.30 562.79 375.71 562.08Q376.11 561.37 376.11 560.45V551.59H377.89V560.49Q377.89 561.86 377.27 562.93Q376.64 563.99 375.53 564.60Q374.42 565.22 372.94 565.22ZM384.32 565.00V553.21H380.69V551.59H389.69V553.21H386.10V565.00ZM398.99 565.22Q397.56 565.22 396.33 564.70Q395.09 564.19 394.16 563.25Q393.23 562.32 392.71 561.06Q392.18 559.79 392.18 558.29Q392.18 556.78 392.70 555.52Q393.23 554.25 394.16 553.32Q395.09 552.39 396.32 551.88Q397.56 551.37 398.99 551.37Q400.43 551.37 401.66 551.89Q402.90 552.40 403.83 553.33Q404.76 554.26 405.28 555.52Q405.81 556.78 405.81 558.29Q405.81 559.79 405.28 561.06Q404.75 562.32 403.82 563.25Q402.89 564.19 401.66 564.70Q400.42 565.22 398.99 565.22ZM398.99 563.57Q400.10 563.57 401.02 563.17Q401.94 562.76 402.61 562.04Q403.29 561.31 403.66 560.35Q404.03 559.39 404.03 558.29Q404.03 557.19 403.66 556.24Q403.29 555.28 402.61 554.55Q401.94 553.82 401.02 553.42Q400.10 553.02 398.99 553.02Q397.89 553.02 396.97 553.42Q396.05 553.82 395.37 554.55Q394.70 555.28 394.33 556.24Q393.96 557.19 393.96 558.29Q393.96 559.39 394.33 560.35Q394.70 561.31 395.37 562.04Q396.05 562.76 396.97 563.17Q397.90 563.57 398.99 563.57ZM409.58 565.00V551.59H411.20L416.23 558.74H415.39L420.38 551.59H422.00V565.00H420.22V553.82L420.85 554.02L415.86 561.04H415.72L410.79 554.02L411.36 553.82V565.00ZM424.88 565.00 429.69 551.59H431.78L436.58 565.00H434.69L433.60 561.86H427.87L426.77 565.00ZM428.42 560.24H433.03L430.48 552.88H430.99ZM441.81 565.00V553.21H438.18V551.59H447.18V553.21H443.59V565.00ZM450.06 565.00V551.59H451.84V565.00ZM454.87 565.00V563.71L462.15 553.21H455.30V551.59H464.45V552.88L457.19 563.38H464.62V565.00ZM466.37 565.00 471.17 551.59H473.26L478.07 565.00H476.17L475.08 561.86H469.36L468.26 565.00ZM469.90 560.24H474.51L471.96 552.88H472.47ZM487.13 565.22Q485.71 565.22 484.51 564.70Q483.31 564.19 482.42 563.26Q481.54 562.33 481.05 561.07Q480.55 559.81 480.55 558.30Q480.55 556.79 481.04 555.53Q481.53 554.27 482.42 553.33Q483.30 552.40 484.50 551.89Q485.70 551.37 487.13 551.37Q488.52 551.37 489.63 551.86Q490.74 552.35 491.50 553.12Q492.26 553.90 492.59 554.78L490.96 555.52Q490.50 554.40 489.51 553.71Q488.52 553.02 487.13 553.02Q485.73 553.02 484.64 553.68Q483.55 554.35 482.94 555.53Q482.33 556.72 482.33 558.30Q482.33 559.87 482.94 561.06Q483.55 562.25 484.64 562.91Q485.73 563.57 487.13 563.57Q488.52 563.57 489.51 562.89Q490.50 562.20 490.96 561.08L492.59 561.82Q492.26 562.69 491.50 563.47Q490.74 564.24 489.63 564.73Q488.52 565.22 487.13 565.22ZM496.17 565.00V551.59H497.95V565.00ZM508.54 565.22Q507.11 565.22 505.87 564.70Q504.64 564.19 503.71 563.25Q502.78 562.32 502.25 561.06Q501.73 559.79 501.73 558.29Q501.73 556.78 502.25 555.52Q502.78 554.25 503.70 553.32Q504.63 552.39 505.87 551.88Q507.10 551.37 508.54 551.37Q509.98 551.37 511.21 551.89Q512.45 552.40 513.38 553.33Q514.30 554.26 514.83 555.52Q515.35 556.78 515.35 558.29Q515.35 559.79 514.83 561.06Q514.30 562.32 513.37 563.25Q512.44 564.19 511.21 564.70Q509.97 565.22 508.54 565.22ZM508.54 563.57Q509.65 563.57 510.57 563.17Q511.48 562.76 512.16 562.04Q512.83 561.31 513.20 560.35Q513.58 559.39 513.58 558.29Q513.58 557.19 513.20 556.24Q512.83 555.28 512.16 554.55Q511.48 553.82 510.57 553.42Q509.65 553.02 508.54 553.02Q507.43 553.02 506.52 553.42Q505.60 553.82 504.92 554.55Q504.25 555.28 503.88 556.24Q503.50 557.19 503.50 558.29Q503.50 559.39 503.88 560.35Q504.25 561.31 504.92 562.04Q505.60 562.76 506.52 563.17Q507.45 563.57 508.54 563.57ZM507.69 549.76 509.13 546.93H511.39L509.38 549.76ZM519.13 565.00V551.59H520.61L528.31 562.43L527.65 562.49V551.59H529.43V565.00H527.95L520.28 554.09L520.90 554.02V565.00Z"/>
</svg>